<?xml version="1.0" encoding="UTF-8"?>
<svg width="29px" height="50px" viewBox="0 0 29 50" version="1.1" xmlns="http://www.w3.org/2000/svg" xmlns:xlink="http://www.w3.org/1999/xlink">
    <!-- Generator: Sketch 54.1 (76490) - https://sketchapp.com -->
    <title>Shape</title>
    <desc>Created with Sketch.</desc>
    <g id="Page-1" stroke="none" stroke-width="1" fill="none" fill-rule="evenodd">
        <g id="Kelas" transform="translate(-937.000000, -2707.000000)" fill="#C7C7C7" fill-rule="nonzero">
            <g id="footer" transform="translate(213.000000, 2329.000000)">
                <g id="Group-2" transform="translate(187.000000, 378.000000)">
                    <g id="national-monument-monas" transform="translate(537.000000, 0.000000)">
                        <path d="M27.692449,34.7682653 L17.7927551,34.7682653 L16.9537755,8.53091837 C17.8309184,8.5294898 18.5440816,7.81561224 18.5440816,6.93816327 C18.5440816,6.05969388 17.8295918,5.34520408 16.9515306,5.34520408 L16.4270408,5.34520408 C16.4896939,5.1927551 16.5247959,5.02612245 16.5247959,4.85112245 C16.5247959,4.35377551 16.2453061,3.92081633 15.835102,3.70071429 C15.8987755,3.52520408 15.9480612,3.31540816 15.9480612,3.08632653 C15.9480612,2.35489796 15.4867347,1.78193878 14.8976531,1.78193878 L14.5227551,1.78193878 L14.5227551,0.422142857 C14.5227551,0.188979592 14.3335714,0 14.1004082,0 C13.8672449,0 13.6782653,0.188979592 13.6782653,0.422142857 L13.6782653,1.78173469 L13.3031633,1.78173469 C12.7140816,1.78173469 12.2529592,2.35469388 12.2529592,3.08612245 C12.2529592,3.31520408 12.3021429,3.525 12.3659184,3.7005102 C11.9556122,3.92061224 11.6760204,4.35357143 11.6760204,4.85091837 C11.6760204,5.02581633 11.7111224,5.19255102 11.7737755,5.345 L11.2497959,5.345 C10.3713265,5.345 9.65683673,6.05969388 9.65683673,6.93795918 C9.65683673,7.81540816 10.3697959,8.52928571 11.2469388,8.53071429 L10.4081633,34.7679592 L0.508673469,34.7679592 C0.275612245,34.7679592 0.0865306122,34.9571429 0.0865306122,35.190102 L0.0865306122,36.6157143 C0.0865306122,36.8486735 0.275612245,37.0378571 0.508673469,37.0378571 L2.62857143,37.0378571 L7.00673469,45.4243878 L5.09,45.4243878 C4.85693878,45.4243878 4.66795918,45.6133673 4.66795918,45.8465306 L4.66795918,48.5953061 C4.66795918,48.8284694 4.85693878,49.017449 5.09,49.017449 L23.1106122,49.017449 C23.3437755,49.017449 23.5327551,48.8284694 23.5327551,48.5953061 L23.5327551,45.8465306 C23.5327551,45.6133673 23.3437755,45.4243878 23.1106122,45.4243878 L21.1938776,45.4243878 L25.5722449,37.0378571 L27.6919388,37.0378571 C27.9252041,37.0378571 28.1140816,36.8486735 28.1140816,36.6157143 L28.1140816,35.1903061 C28.1144898,34.9573469 27.9257143,34.7682653 27.692449,34.7682653 Z M12.9809184,4.39071429 C13.1420408,4.39071429 13.2888776,4.29928571 13.3596939,4.15479592 C13.4306122,4.01020408 13.4131633,3.83795918 13.314898,3.7105102 C13.312551,3.70765306 13.0976531,3.41489796 13.0976531,3.08622449 C13.0976531,2.79989796 13.2406122,2.62602041 13.3035714,2.62602041 L14.8979592,2.62602041 C14.9608163,2.62602041 15.1041837,2.79989796 15.1041837,3.08622449 C15.1041837,3.4172449 14.8873469,3.70979592 14.8869388,3.7105102 C14.7883673,3.83785714 14.7708163,4.01030612 14.8419388,4.15479592 C14.9128571,4.29938776 15.06,4.39071429 15.2207143,4.39071429 C15.4746939,4.39071429 15.6811224,4.59704082 15.6811224,4.85102041 C15.6811224,5.10479592 15.474898,5.31122449 15.2207143,5.31122449 L12.9811224,5.31122449 C12.7271429,5.31122449 12.5208163,5.10479592 12.5208163,4.85102041 C12.5207143,4.59704082 12.7272449,4.39071429 12.9809184,4.39071429 Z M10.5014286,6.93806122 C10.5014286,6.52520408 10.8373469,6.18928571 11.2502041,6.18928571 L16.9517347,6.18928571 C17.3645918,6.18928571 17.7002041,6.52520408 17.7002041,6.93806122 C17.7002041,7.35081633 17.3644898,7.68663265 16.9517347,7.68663265 L16.5185714,7.68663265 L11.6833673,7.68663265 L11.2502041,7.68663265 C10.8373469,7.68673469 10.5014286,7.35091837 10.5014286,6.93806122 Z M12.0920408,8.53091837 L16.1096939,8.53091837 L16.9484694,34.7681633 L11.2534694,34.7681633 L12.0920408,8.53091837 Z M22.6889796,48.1730612 L5.5127551,48.1730612 L5.5127551,46.2685714 L7.70387755,46.2685714 L20.4979592,46.2685714 L22.6889796,46.2685714 L22.6889796,48.1730612 L22.6889796,48.1730612 Z M20.2419388,45.4242857 L7.95959184,45.4242857 L3.58132653,37.0377551 L24.6203061,37.0377551 L20.2419388,45.4242857 Z M27.2705102,36.1935714 L25.3168367,36.1935714 L2.88479592,36.1935714 L0.93122449,36.1935714 L0.93122449,35.612449 L10.817449,35.612449 L17.3841837,35.612449 C17.3853061,35.6126531 17.3863265,35.6126531 17.3868367,35.612449 L27.2705102,35.612449 L27.2705102,36.1935714 L27.2705102,36.1935714 Z" id="Shape"></path>
                    </g>
                </g>
            </g>
        </g>
    </g>
</svg>